<?xml version="1.0" encoding="UTF-8" standalone="no"?><!-- Generator: Gravit.io --><svg xmlns="http://www.w3.org/2000/svg" xmlns:xlink="http://www.w3.org/1999/xlink" style="isolation:isolate" viewBox="0 0 550 75" width="550pt" height="75pt"><defs><clipPath id="_clipPath_jYfU9kVQiwBz4jVmWyFh4vX1ccUApwW2"><rect width="550" height="75"/></clipPath></defs><g clip-path="url(#_clipPath_jYfU9kVQiwBz4jVmWyFh4vX1ccUApwW2)"><path d=" M 292.682 25.231 L 292.682 25.231 Q 294.154 25.231 294.96 25.687 L 294.96 25.687 L 294.96 25.687 Q 295.766 26.142 295.766 26.983 L 295.766 26.983 L 295.766 26.983 Q 295.766 27.334 295.556 27.895 L 295.556 27.895 L 295.556 27.895 Q 295.345 28.385 294.96 28.771 L 294.96 28.771 L 294.96 28.771 Q 294.574 29.156 294.259 29.331 L 294.259 29.331 L 294.259 29.331 Q 293.944 29.507 293.803 29.647 L 293.803 29.647 L 293.803 29.647 Q 292.682 30.277 291.981 31.048 L 291.981 31.048 L 291.981 31.048 Q 291.28 31.819 290.79 33.431 L 290.79 33.431 L 282.309 63.639 L 282.309 63.639 Q 282.029 64.55 282.029 65.391 L 282.029 65.391 L 282.029 65.391 Q 282.029 66.232 282.274 66.793 L 282.274 66.793 L 282.274 66.793 Q 282.52 67.353 283.01 67.984 L 283.01 67.984 L 283.01 67.984 Q 283.641 68.895 283.641 69.456 L 283.641 69.456 L 283.641 69.456 Q 283.641 69.596 283.501 70.157 L 283.501 70.157 L 283.501 70.157 Q 283.22 71.138 282.239 71.523 L 282.239 71.523 L 282.239 71.523 Q 281.258 71.909 279.296 71.909 L 279.296 71.909 L 262.825 71.909 L 262.825 71.909 Q 261.353 71.909 260.547 71.418 L 260.547 71.418 L 260.547 71.418 Q 259.741 70.928 259.741 70.087 L 259.741 70.087 L 259.741 70.087 Q 259.741 69.666 259.952 69.176 L 259.952 69.176 L 259.952 69.176 Q 260.232 68.405 260.863 67.984 L 260.863 67.984 L 260.863 67.984 Q 261.493 67.564 261.634 67.493 L 261.634 67.493 L 261.634 67.493 Q 262.755 66.793 263.456 66.057 L 263.456 66.057 L 263.456 66.057 Q 264.157 65.321 264.647 63.639 L 264.647 63.639 L 273.198 33.431 L 273.198 33.431 Q 273.478 32.52 273.478 31.679 L 273.478 31.679 L 273.478 31.679 Q 273.478 30.908 273.233 30.383 L 273.233 30.383 L 273.233 30.383 Q 272.988 29.857 272.567 29.156 L 272.567 29.156 L 272.567 29.156 Q 271.936 28.245 271.936 27.684 L 271.936 27.684 L 271.936 27.684 Q 271.936 27.474 272.077 26.913 L 272.077 26.913 L 272.077 26.913 Q 272.357 26.002 273.303 25.617 L 273.303 25.617 L 273.303 25.617 Q 274.249 25.231 276.212 25.231 L 276.212 25.231 L 292.682 25.231 L 292.682 25.231 Z  M 360.806 48.43 L 356.531 62.237 L 356.531 62.237 Q 356.391 62.517 356.391 63.078 L 356.391 63.078 L 356.391 63.078 Q 356.391 63.569 356.636 63.849 L 356.636 63.849 L 356.636 63.849 Q 356.882 64.129 357.302 64.129 L 357.302 64.129 L 357.302 64.129 Q 358.143 64.129 358.739 63.393 L 358.739 63.393 L 358.739 63.393 Q 359.335 62.658 359.545 62.658 L 359.545 62.658 L 359.545 62.658 Q 359.895 62.658 360.105 63.113 L 360.105 63.113 L 360.105 63.113 Q 360.316 63.569 360.316 64.199 L 360.316 64.199 L 360.316 64.199 Q 360.386 66.232 358.984 68.159 L 358.984 68.159 L 358.984 68.159 Q 357.582 70.087 354.884 71.313 L 354.884 71.313 L 354.884 71.313 Q 352.186 72.54 348.401 72.54 L 348.401 72.54 L 348.401 72.54 Q 343.775 72.54 341.042 70.402 L 341.042 70.402 L 341.042 70.402 Q 338.309 68.264 338.238 64.69 L 338.238 64.69 L 338.238 64.69 Q 338.238 62.097 339.5 58.873 L 339.5 58.873 L 343.355 48.78 L 343.355 48.78 Q 343.705 47.869 343.705 47.309 L 343.705 47.309 L 343.705 47.309 Q 343.705 46.397 343.109 45.872 L 343.109 45.872 L 343.109 45.872 Q 342.514 45.346 341.673 45.346 L 341.673 45.346 L 341.673 45.346 Q 340.481 45.346 339.22 46.397 L 339.22 46.397 L 339.22 46.397 Q 337.958 47.449 336.977 49.691 L 336.977 49.691 L 333.122 62.237 L 333.122 62.237 Q 332.982 62.517 332.982 63.078 L 332.982 63.078 L 332.982 63.078 Q 332.982 63.569 333.227 63.849 L 333.227 63.849 L 333.227 63.849 Q 333.473 64.129 333.893 64.129 L 333.893 64.129 L 333.893 64.129 Q 334.734 64.129 335.33 63.393 L 335.33 63.393 L 335.33 63.393 Q 335.926 62.658 336.136 62.658 L 336.136 62.658 L 336.136 62.658 Q 336.486 62.658 336.697 63.113 L 336.697 63.113 L 336.697 63.113 Q 336.907 63.569 336.907 64.199 L 336.907 64.199 L 336.907 64.199 Q 336.977 66.232 335.575 68.159 L 335.575 68.159 L 335.575 68.159 Q 334.173 70.087 331.475 71.313 L 331.475 71.313 L 331.475 71.313 Q 328.777 72.54 324.992 72.54 L 324.992 72.54 L 324.992 72.54 Q 320.366 72.54 317.633 70.402 L 317.633 70.402 L 317.633 70.402 Q 314.9 68.264 314.829 64.69 L 314.829 64.69 L 314.829 64.69 Q 314.829 62.097 316.091 58.873 L 316.091 58.873 L 319.946 48.78 L 319.946 48.78 Q 320.296 47.869 320.296 47.309 L 320.296 47.309 L 320.296 47.309 Q 320.296 46.397 319.701 45.872 L 319.701 45.872 L 319.701 45.872 Q 319.105 45.346 318.264 45.346 L 318.264 45.346 L 318.264 45.346 Q 317.072 45.346 315.811 46.362 L 315.811 46.362 L 315.811 46.362 Q 314.549 47.379 313.708 49.621 L 313.708 49.621 L 309.082 64.62 L 309.082 64.62 Q 308.802 65.391 308.802 66.092 L 308.802 66.092 L 308.802 66.092 Q 308.802 66.933 309.152 67.458 L 309.152 67.458 L 309.152 67.458 Q 309.503 67.984 310.134 68.545 L 310.134 68.545 L 310.134 68.545 Q 310.624 68.965 310.835 69.316 L 310.835 69.316 L 310.835 69.316 Q 311.045 69.666 310.905 70.157 L 310.905 70.157 L 310.905 70.157 Q 310.624 71.068 309.573 71.488 L 309.573 71.488 L 309.573 71.488 Q 308.522 71.909 306.279 71.909 L 306.279 71.909 L 290.299 71.909 L 290.299 71.909 Q 288.477 71.909 287.671 71.313 L 287.671 71.313 L 287.671 71.313 Q 286.865 70.717 287.075 69.736 L 287.075 69.736 L 287.075 69.736 Q 287.355 68.895 288.547 68.264 L 288.547 68.264 L 288.547 68.264 Q 289.598 67.704 290.299 66.933 L 290.299 66.933 L 290.299 66.933 Q 291 66.162 291.491 64.48 L 291.491 64.48 L 297.728 44.225 L 297.728 44.225 Q 297.868 43.874 297.868 43.243 L 297.868 43.243 L 297.868 43.243 Q 297.868 42.473 297.553 42.052 L 297.553 42.052 L 297.553 42.052 Q 297.238 41.632 296.537 41.001 L 296.537 41.001 L 296.537 41.001 Q 295.836 40.44 295.556 40.02 L 295.556 40.02 L 295.556 40.02 Q 295.275 39.599 295.486 38.898 L 295.486 38.898 L 295.486 38.898 Q 295.906 37.286 299.901 36.06 L 299.901 36.06 L 299.901 36.06 Q 303.896 34.833 308.241 34.833 L 308.241 34.833 L 308.241 34.833 Q 311.676 34.833 313.673 36.725 L 313.673 36.725 L 313.673 36.725 Q 315.671 38.618 315.6 41.912 L 315.6 41.912 L 315.6 41.912 Q 318.474 37.917 321.663 36.375 L 321.663 36.375 L 321.663 36.375 Q 324.852 34.833 328.566 34.833 L 328.566 34.833 L 328.566 34.833 Q 332.632 34.833 335.19 37.181 L 335.19 37.181 L 335.19 37.181 Q 337.748 39.529 338.028 43.314 L 338.028 43.314 L 338.028 43.314 Q 341.042 38.548 344.476 36.69 L 344.476 36.69 L 344.476 36.69 Q 347.91 34.833 351.975 34.833 L 351.975 34.833 L 351.975 34.833 Q 356.251 34.833 358.879 37.426 L 358.879 37.426 L 358.879 37.426 Q 361.507 40.02 361.507 44.155 L 361.507 44.155 L 361.507 44.155 Q 361.507 46.327 360.806 48.43 L 360.806 48.43 L 360.806 48.43 Z  M 387.089 34.483 L 387.089 34.483 Q 395.99 34.483 399.985 37.321 L 399.985 37.321 L 399.985 37.321 Q 403.98 40.16 403.98 44.575 L 403.98 44.575 L 403.98 44.575 Q 403.98 45.907 403.699 47.028 L 403.699 47.028 L 403.699 47.028 Q 402.648 51.654 397.847 53.651 L 397.847 53.651 L 397.847 53.651 Q 393.046 55.649 386.528 55.649 L 386.528 55.649 L 386.528 55.649 Q 383.234 55.649 380.361 55.228 L 380.361 55.228 L 380.361 55.228 Q 380.29 58.873 382.323 60.345 L 382.323 60.345 L 382.323 60.345 Q 384.355 61.816 388 61.816 L 388 61.816 L 388 61.816 Q 389.682 61.816 391.224 61.431 L 391.224 61.431 L 391.224 61.431 Q 392.766 61.046 395.149 60.275 L 395.149 60.275 L 395.149 60.275 Q 397.111 59.574 397.812 59.574 L 397.812 59.574 L 397.812 59.574 Q 398.583 59.574 398.583 60.485 L 398.583 60.485 L 398.583 60.485 Q 398.653 62.938 396.761 65.636 L 396.761 65.636 L 396.761 65.636 Q 394.868 68.335 391.154 70.227 L 391.154 70.227 L 391.154 70.227 Q 387.439 72.119 382.183 72.119 L 382.183 72.119 L 382.183 72.119 Q 374.403 72.119 369.427 68.194 L 369.427 68.194 L 369.427 68.194 Q 364.451 64.27 364.451 56.77 L 364.451 56.77 L 364.451 56.77 Q 364.451 54.668 365.012 51.864 L 365.012 51.864 L 365.012 51.864 Q 366.764 43.243 372.686 38.863 L 372.686 38.863 L 372.686 38.863 Q 378.608 34.483 387.089 34.483 L 387.089 34.483 L 387.089 34.483 Z  M 380.851 51.023 L 380.851 51.023 Q 381.132 51.093 381.622 51.093 L 381.622 51.093 L 381.622 51.093 Q 384.566 51.093 386.108 48.36 L 386.108 48.36 L 386.108 48.36 Q 387.65 45.626 387.579 42.262 L 387.579 42.262 L 387.579 42.262 Q 387.509 40.3 386.458 40.3 L 386.458 40.3 L 386.458 40.3 Q 385.687 40.3 384.636 41.526 L 384.636 41.526 L 384.636 41.526 Q 383.585 42.753 382.568 45.206 L 382.568 45.206 L 382.568 45.206 Q 381.552 47.659 380.851 51.023 L 380.851 51.023 L 380.851 51.023 Z  M 436.991 34.833 L 436.991 34.833 Q 440.915 34.833 443.263 37.216 L 443.263 37.216 L 443.263 37.216 Q 445.611 39.599 445.611 43.103 L 445.611 43.103 L 445.611 43.103 Q 445.611 44.435 445.331 45.556 L 445.331 45.556 L 445.331 45.556 Q 444.63 48.43 442.668 49.972 L 442.668 49.972 L 442.668 49.972 Q 440.705 51.514 437.972 51.514 L 437.972 51.514 L 437.972 51.514 Q 435.309 51.514 433.942 50.252 L 433.942 50.252 L 433.942 50.252 Q 432.575 48.991 431.524 46.888 L 431.524 46.888 L 431.524 46.888 Q 430.963 45.697 430.473 45.136 L 430.473 45.136 L 430.473 45.136 Q 429.982 44.575 429.351 44.575 L 429.351 44.575 L 429.351 44.575 Q 428.65 44.575 428.125 45.136 L 428.125 45.136 L 428.125 45.136 Q 427.599 45.697 427.178 47.098 L 427.178 47.098 L 421.782 64.62 L 421.782 64.62 Q 421.642 64.97 421.642 65.671 L 421.642 65.671 L 421.642 65.671 Q 421.642 66.582 422.167 67.178 L 422.167 67.178 L 422.167 67.178 Q 422.693 67.774 423.604 68.335 L 423.604 68.335 L 423.604 68.335 Q 424.445 68.895 424.725 69.246 L 424.725 69.246 L 424.725 69.246 Q 425.006 69.596 424.936 70.157 L 424.936 70.157 L 424.936 70.157 Q 424.796 71.068 423.919 71.488 L 423.919 71.488 L 423.919 71.488 Q 423.043 71.909 420.941 71.909 L 420.941 71.909 L 402.999 71.909 L 402.999 71.909 Q 401.176 71.909 400.37 71.313 L 400.37 71.313 L 400.37 71.313 Q 399.564 70.717 399.775 69.736 L 399.775 69.736 L 399.775 69.736 Q 400.055 68.895 401.246 68.264 L 401.246 68.264 L 401.246 68.264 Q 402.298 67.704 402.999 66.933 L 402.999 66.933 L 402.999 66.933 Q 403.699 66.162 404.19 64.48 L 404.19 64.48 L 410.428 44.225 L 410.428 44.225 Q 410.568 43.874 410.568 43.243 L 410.568 43.243 L 410.568 43.243 Q 410.568 42.473 410.253 42.052 L 410.253 42.052 L 410.253 42.052 Q 409.937 41.632 409.236 41.001 L 409.236 41.001 L 409.236 41.001 Q 408.535 40.44 408.255 40.02 L 408.255 40.02 L 408.255 40.02 Q 407.975 39.599 408.185 38.898 L 408.185 38.898 L 408.185 38.898 Q 408.605 37.286 412.6 36.06 L 412.6 36.06 L 412.6 36.06 Q 416.595 34.833 420.941 34.833 L 420.941 34.833 L 420.941 34.833 Q 423.814 34.833 425.707 36.13 L 425.707 36.13 L 425.707 36.13 Q 427.599 37.426 428.16 39.809 L 428.16 39.809 L 428.16 39.809 Q 431.524 34.833 436.991 34.833 L 436.991 34.833 L 436.991 34.833 Z  M 461.381 34.833 L 461.381 34.833 Q 465.446 34.833 467.338 36.375 L 467.338 36.375 L 467.338 36.375 Q 469.23 37.917 469.23 40.58 L 469.23 40.58 L 469.23 40.58 Q 469.23 42.192 468.74 43.664 L 468.74 43.664 L 462.292 64.62 L 462.292 64.62 Q 462.082 65.461 462.082 66.092 L 462.082 66.092 L 462.082 66.092 Q 462.082 67.003 462.432 67.529 L 462.432 67.529 L 462.432 67.529 Q 462.783 68.054 463.413 68.545 L 463.413 68.545 L 463.413 68.545 Q 463.904 69.035 464.114 69.351 L 464.114 69.351 L 464.114 69.351 Q 464.324 69.666 464.184 70.157 L 464.184 70.157 L 464.184 70.157 Q 463.834 71.068 462.783 71.488 L 462.783 71.488 L 462.783 71.488 Q 461.731 71.909 459.559 71.909 L 459.559 71.909 L 443.579 71.909 L 443.579 71.909 Q 441.757 71.909 440.915 71.313 L 440.915 71.313 L 440.915 71.313 Q 440.074 70.717 440.355 69.736 L 440.355 69.736 L 440.355 69.736 Q 440.635 68.895 441.827 68.264 L 441.827 68.264 L 441.827 68.264 Q 442.878 67.704 443.579 66.933 L 443.579 66.933 L 443.579 66.933 Q 444.28 66.162 444.77 64.48 L 444.77 64.48 L 450.868 44.225 L 450.868 44.225 Q 451.078 43.594 451.078 43.173 L 451.078 43.173 L 451.078 43.173 Q 451.078 42.402 450.728 41.947 L 450.728 41.947 L 450.728 41.947 Q 450.377 41.491 449.676 41.001 L 449.676 41.001 L 449.676 41.001 Q 448.975 40.44 448.695 40.02 L 448.695 40.02 L 448.695 40.02 Q 448.415 39.599 448.625 38.898 L 448.625 38.898 L 448.625 38.898 Q 449.046 37.286 453.04 36.06 L 453.04 36.06 L 453.04 36.06 Q 457.035 34.833 461.381 34.833 L 461.381 34.833 L 461.381 34.833 Z  M 466.077 19.344 L 466.077 19.344 Q 468.81 19.344 470.632 21.131 L 470.632 21.131 L 470.632 21.131 Q 472.454 22.918 472.454 25.512 L 472.454 25.512 L 472.454 25.512 Q 472.454 27.334 471.508 29.086 L 471.508 29.086 L 471.508 29.086 Q 470.562 30.838 468.845 31.924 L 468.845 31.924 L 468.845 31.924 Q 467.128 33.011 465.025 33.011 L 465.025 33.011 L 465.025 33.011 Q 462.362 33.011 460.575 31.224 L 460.575 31.224 L 460.575 31.224 Q 458.788 29.436 458.717 26.773 L 458.717 26.773 L 458.717 26.773 Q 458.717 25.021 459.629 23.304 L 459.629 23.304 L 459.629 23.304 Q 460.54 21.587 462.222 20.465 L 462.222 20.465 L 462.222 20.465 Q 463.904 19.344 466.077 19.344 L 466.077 19.344 L 466.077 19.344 Z  M 500.139 35.744 L 500.139 35.744 Q 501.47 35.744 502.206 36.305 L 502.206 36.305 L 502.206 36.305 Q 502.942 36.866 502.942 37.847 L 502.942 37.847 L 502.942 37.847 Q 502.942 38.127 502.802 38.828 L 502.802 38.828 L 502.802 38.828 Q 501.891 41.912 498.597 41.912 L 498.597 41.912 L 494.532 41.912 L 489.275 59.223 L 489.275 59.223 Q 488.925 60.275 488.925 61.396 L 488.925 61.396 L 488.925 61.396 Q 488.925 62.658 489.626 63.148 L 489.626 63.148 L 489.626 63.148 Q 490.327 63.639 491.588 63.639 L 491.588 63.639 L 491.588 63.639 Q 492.71 63.639 494.392 63.358 L 494.392 63.358 L 494.392 63.358 Q 495.233 63.148 495.863 63.148 L 495.863 63.148 L 495.863 63.148 Q 496.354 63.148 496.599 63.464 L 496.599 63.464 L 496.599 63.464 Q 496.845 63.779 496.845 64.27 L 496.845 64.27 L 496.845 64.27 Q 496.915 65.671 494.777 67.669 L 494.777 67.669 L 494.777 67.669 Q 492.639 69.666 488.995 71.103 L 488.995 71.103 L 488.995 71.103 Q 485.35 72.54 480.935 72.54 L 480.935 72.54 L 480.935 72.54 Q 476.169 72.54 473.296 70.367 L 473.296 70.367 L 473.296 70.367 Q 470.422 68.194 470.422 64.41 L 470.422 64.41 L 470.422 64.41 Q 470.422 62.658 470.983 61.046 L 470.983 61.046 L 475.468 47.168 L 475.468 47.168 Q 475.819 45.977 475.819 45.276 L 475.819 45.276 L 475.819 45.276 Q 475.819 43.874 475.153 42.893 L 475.153 42.893 L 475.153 42.893 Q 474.487 41.912 473.296 40.861 L 473.296 40.861 L 473.296 40.861 Q 472.244 39.879 471.824 39.214 L 471.824 39.214 L 471.824 39.214 Q 471.403 38.548 471.613 37.637 L 471.613 37.637 L 471.613 37.637 Q 471.894 36.725 472.805 36.235 L 472.805 36.235 L 472.805 36.235 Q 473.716 35.744 475.678 35.744 L 475.678 35.744 L 479.603 35.744 L 484.019 31.329 L 484.019 31.329 Q 486.332 29.016 488.259 28.105 L 488.259 28.105 L 488.259 28.105 Q 490.186 27.194 493.27 27.194 L 493.27 27.194 L 493.27 27.194 Q 497.686 27.194 497.686 30.558 L 497.686 30.558 L 497.686 30.558 Q 497.686 31.609 497.405 32.52 L 497.405 32.52 L 496.424 35.744 L 500.139 35.744 L 500.139 35.744 Z  M 526.071 34.833 L 526.071 34.833 Q 535.603 34.833 540.123 38.688 L 540.123 38.688 L 540.123 38.688 Q 544.644 42.543 544.644 48.78 L 544.644 48.78 L 544.644 48.78 Q 544.644 50.883 544.083 53.476 L 544.083 53.476 L 544.083 53.476 Q 542.751 59.223 539.107 63.534 L 539.107 63.534 L 539.107 63.534 Q 535.462 67.844 530.171 70.192 L 530.171 70.192 L 530.171 70.192 Q 524.879 72.54 518.712 72.54 L 518.712 72.54 L 518.712 72.54 Q 508.97 72.54 504.309 68.65 L 504.309 68.65 L 504.309 68.65 Q 499.648 64.76 499.648 58.312 L 499.648 58.312 L 499.648 58.312 Q 499.648 56.139 500.209 53.476 L 500.209 53.476 L 500.209 53.476 Q 501.54 48.009 505.29 43.769 L 505.29 43.769 L 505.29 43.769 Q 509.04 39.529 514.471 37.181 L 514.471 37.181 L 514.471 37.181 Q 519.903 34.833 526.071 34.833 L 526.071 34.833 L 526.071 34.833 Z  M 525.861 41.071 L 525.861 41.071 Q 524.389 41.071 522.742 43.699 L 522.742 43.699 L 522.742 43.699 Q 521.095 46.327 518.852 53.616 L 518.852 53.616 L 518.852 53.616 Q 516.609 60.905 516.609 63.849 L 516.609 63.849 L 516.609 63.849 Q 516.609 65.391 517.1 65.917 L 517.1 65.917 L 517.1 65.917 Q 517.59 66.442 518.431 66.442 L 518.431 66.442 L 518.431 66.442 Q 519.903 66.582 521.48 63.919 L 521.48 63.919 L 521.48 63.919 Q 523.057 61.256 525.44 53.546 L 525.44 53.546 L 525.44 53.546 Q 527.613 46.748 527.613 43.664 L 527.613 43.664 L 527.613 43.664 Q 527.613 42.192 527.157 41.632 L 527.157 41.632 L 527.157 41.632 Q 526.702 41.071 525.861 41.071 L 525.861 41.071 L 525.861 41.071 Z  M 47.589 25.231 L 47.589 25.231 Q 58.102 25.231 63.428 29.261 L 63.428 29.261 L 63.428 29.261 Q 68.755 33.291 68.755 41.071 L 68.755 41.071 L 68.755 41.071 Q 68.755 44.926 67.353 49.972 L 67.353 49.972 L 67.353 49.972 Q 65.04 58.102 61.116 62.868 L 61.116 62.868 L 61.116 62.868 Q 57.191 67.634 50.778 69.806 L 50.778 69.806 L 50.778 69.806 Q 44.365 71.979 34.342 71.909 L 34.342 71.909 L 15.279 71.839 L 15.279 71.839 Q 13.807 71.839 13.001 71.348 L 13.001 71.348 L 13.001 71.348 Q 12.195 70.858 12.195 70.017 L 12.195 70.017 L 12.195 70.017 Q 12.195 69.596 12.405 69.105 L 12.405 69.105 L 12.405 69.105 Q 12.616 68.475 13.001 68.194 L 13.001 68.194 L 13.001 68.194 Q 13.387 67.914 14.158 67.423 L 14.158 67.423 L 14.158 67.423 Q 15.279 66.793 15.945 66.022 L 15.945 66.022 L 15.945 66.022 Q 16.611 65.251 17.101 63.569 L 17.101 63.569 L 25.652 33.431 L 25.652 33.431 Q 25.932 32.52 25.932 31.679 L 25.932 31.679 L 25.932 31.679 Q 25.932 30.908 25.687 30.383 L 25.687 30.383 L 25.687 30.383 Q 25.441 29.857 25.021 29.156 L 25.021 29.156 L 25.021 29.156 Q 24.39 28.245 24.39 27.684 L 24.39 27.684 L 24.39 27.684 Q 24.39 27.474 24.53 26.913 L 24.53 26.913 L 24.53 26.913 Q 24.811 26.002 25.757 25.617 L 25.757 25.617 L 25.757 25.617 Q 26.703 25.231 28.665 25.231 L 28.665 25.231 L 47.589 25.231 L 47.589 25.231 Z  M 49.411 48.43 L 49.411 48.43 Q 51.233 41.842 51.233 38.057 L 51.233 38.057 L 51.233 38.057 Q 51.233 34.342 49.691 32.941 L 49.691 32.941 L 49.691 32.941 Q 48.15 31.539 45.276 31.539 L 45.276 31.539 L 43.734 31.539 L 34.272 65.601 L 35.954 65.601 L 35.954 65.601 Q 39.178 65.601 41.386 64.234 L 41.386 64.234 L 41.386 64.234 Q 43.594 62.868 45.486 59.188 L 45.486 59.188 L 45.486 59.188 Q 47.379 55.509 49.411 48.43 L 49.411 48.43 L 49.411 48.43 Z  M 93.145 34.833 L 93.145 34.833 Q 101.205 34.833 106.041 37.812 L 106.041 37.812 L 106.041 37.812 Q 110.877 40.79 110.877 46.888 L 110.877 46.888 L 110.877 46.888 Q 110.877 49.201 110.036 52.145 L 110.036 52.145 L 107.163 61.816 L 107.163 61.816 Q 107.092 62.097 107.092 62.517 L 107.092 62.517 L 107.092 62.517 Q 107.092 63.639 108.004 63.639 L 108.004 63.639 L 108.004 63.639 Q 108.845 63.639 109.44 62.903 L 109.44 62.903 L 109.44 62.903 Q 110.036 62.167 110.246 62.167 L 110.246 62.167 L 110.246 62.167 Q 110.597 62.167 110.842 62.658 L 110.842 62.658 L 110.842 62.658 Q 111.087 63.148 111.087 63.779 L 111.087 63.779 L 111.087 63.779 Q 111.158 65.671 109.651 67.634 L 109.651 67.634 L 109.651 67.634 Q 108.144 69.596 105.621 70.858 L 105.621 70.858 L 105.621 70.858 Q 103.098 72.119 100.084 72.119 L 100.084 72.119 L 100.084 72.119 Q 96.439 72.119 93.846 70.788 L 93.846 70.788 L 93.846 70.788 Q 91.253 69.456 90.272 66.863 L 90.272 66.863 L 90.272 66.863 Q 88.169 69.386 85.296 70.753 L 85.296 70.753 L 85.296 70.753 Q 82.422 72.119 79.128 72.119 L 79.128 72.119 L 79.128 72.119 Q 75.413 72.119 72.89 70.682 L 72.89 70.682 L 72.89 70.682 Q 70.367 69.246 69.141 66.968 L 69.141 66.968 L 69.141 66.968 Q 67.914 64.69 67.914 62.167 L 67.914 62.167 L 67.914 62.167 Q 67.914 61.046 68.124 59.994 L 68.124 59.994 L 68.124 59.994 Q 69.246 55.158 72.995 52.705 L 72.995 52.705 L 72.995 52.705 Q 76.745 50.252 81.931 50.252 L 81.931 50.252 L 81.931 50.252 Q 87.749 50.252 93.355 52.074 L 93.355 52.074 L 95.108 47.449 L 95.108 47.449 Q 96.019 44.505 96.019 42.893 L 96.019 42.893 L 96.019 42.893 Q 95.949 41.211 94.897 40.37 L 94.897 40.37 L 94.897 40.37 Q 93.846 39.529 91.673 39.529 L 91.673 39.529 L 91.673 39.529 Q 92.094 40.65 92.094 41.842 L 92.094 41.842 L 92.094 41.842 Q 92.094 44.435 90.132 46.327 L 90.132 46.327 L 90.132 46.327 Q 88.169 48.22 84.525 48.22 L 84.525 48.22 L 84.525 48.22 Q 81.09 48.22 79.163 46.713 L 79.163 46.713 L 79.163 46.713 Q 77.236 45.206 77.236 42.963 L 77.236 42.963 L 77.236 42.963 Q 77.236 39.459 81.16 37.146 L 81.16 37.146 L 81.16 37.146 Q 85.085 34.833 93.145 34.833 L 93.145 34.833 L 93.145 34.833 Z  M 89.22 56.069 L 89.22 56.069 Q 87.258 56.069 86.031 57.576 L 86.031 57.576 L 86.031 57.576 Q 84.805 59.083 84.805 60.835 L 84.805 60.835 L 84.805 60.835 Q 84.805 61.957 85.331 62.658 L 85.331 62.658 L 85.331 62.658 Q 85.856 63.358 86.837 63.358 L 86.837 63.358 L 86.837 63.358 Q 87.749 63.358 88.835 62.622 L 88.835 62.622 L 88.835 62.622 Q 89.921 61.887 90.412 60.415 L 90.412 60.415 L 91.884 56.28 L 91.884 56.28 Q 90.692 56.069 89.22 56.069 L 89.22 56.069 L 89.22 56.069 Z  M 161.62 48.43 L 157.345 62.237 L 157.345 62.237 Q 157.204 62.517 157.204 63.078 L 157.204 63.078 L 157.204 63.078 Q 157.204 63.569 157.45 63.849 L 157.45 63.849 L 157.45 63.849 Q 157.695 64.129 158.116 64.129 L 158.116 64.129 L 158.116 64.129 Q 158.957 64.129 159.552 63.393 L 159.552 63.393 L 159.552 63.393 Q 160.148 62.658 160.358 62.658 L 160.358 62.658 L 160.358 62.658 Q 160.709 62.658 160.919 63.113 L 160.919 63.113 L 160.919 63.113 Q 161.129 63.569 161.129 64.199 L 161.129 64.199 L 161.129 64.199 Q 161.199 66.232 159.798 68.159 L 159.798 68.159 L 159.798 68.159 Q 158.396 70.087 155.698 71.313 L 155.698 71.313 L 155.698 71.313 Q 152.999 72.54 149.215 72.54 L 149.215 72.54 L 149.215 72.54 Q 144.589 72.54 141.855 70.402 L 141.855 70.402 L 141.855 70.402 Q 139.122 68.264 139.052 64.69 L 139.052 64.69 L 139.052 64.69 Q 139.052 62.097 140.314 58.873 L 140.314 58.873 L 144.168 48.78 L 144.168 48.78 Q 144.519 47.869 144.519 47.309 L 144.519 47.309 L 144.519 47.309 Q 144.519 46.397 143.923 45.872 L 143.923 45.872 L 143.923 45.872 Q 143.327 45.346 142.486 45.346 L 142.486 45.346 L 142.486 45.346 Q 140.944 45.346 139.543 46.783 L 139.543 46.783 L 139.543 46.783 Q 138.141 48.22 137.51 50.322 L 137.51 50.322 L 133.165 64.62 L 133.165 64.62 Q 132.884 65.391 132.884 66.092 L 132.884 66.092 L 132.884 66.092 Q 132.884 66.933 133.235 67.458 L 133.235 67.458 L 133.235 67.458 Q 133.585 67.984 134.216 68.545 L 134.216 68.545 L 134.216 68.545 Q 134.707 68.965 134.917 69.316 L 134.917 69.316 L 134.917 69.316 Q 135.127 69.666 134.987 70.157 L 134.987 70.157 L 134.987 70.157 Q 134.707 71.068 133.655 71.488 L 133.655 71.488 L 133.655 71.488 Q 132.604 71.909 130.361 71.909 L 130.361 71.909 L 114.382 71.909 L 114.382 71.909 Q 112.559 71.909 111.753 71.313 L 111.753 71.313 L 111.753 71.313 Q 110.947 70.717 111.158 69.736 L 111.158 69.736 L 111.158 69.736 Q 111.438 68.895 112.629 68.264 L 112.629 68.264 L 112.629 68.264 Q 113.681 67.704 114.382 66.933 L 114.382 66.933 L 114.382 66.933 Q 115.082 66.162 115.573 64.48 L 115.573 64.48 L 121.811 44.225 L 121.811 44.225 Q 121.951 43.874 121.951 43.243 L 121.951 43.243 L 121.951 43.243 Q 121.951 42.473 121.635 42.052 L 121.635 42.052 L 121.635 42.052 Q 121.32 41.632 120.619 41.001 L 120.619 41.001 L 120.619 41.001 Q 119.918 40.44 119.638 40.02 L 119.638 40.02 L 119.638 40.02 Q 119.358 39.599 119.568 38.898 L 119.568 38.898 L 119.568 38.898 Q 119.988 37.286 123.983 36.06 L 123.983 36.06 L 123.983 36.06 Q 127.978 34.833 132.324 34.833 L 132.324 34.833 L 132.324 34.833 Q 135.828 34.833 137.861 36.76 L 137.861 36.76 L 137.861 36.76 Q 139.893 38.688 139.683 42.122 L 139.683 42.122 L 139.683 42.122 Q 142.556 37.987 145.78 36.41 L 145.78 36.41 L 145.78 36.41 Q 149.004 34.833 152.789 34.833 L 152.789 34.833 L 152.789 34.833 Q 157.064 34.833 159.693 37.426 L 159.693 37.426 L 159.693 37.426 Q 162.321 40.02 162.321 44.155 L 162.321 44.155 L 162.321 44.155 Q 162.321 46.327 161.62 48.43 L 161.62 48.43 L 161.62 48.43 Z  M 195.472 35.744 L 195.472 35.744 Q 196.803 35.744 197.539 36.305 L 197.539 36.305 L 197.539 36.305 Q 198.275 36.866 198.275 37.847 L 198.275 37.847 L 198.275 37.847 Q 198.275 38.127 198.135 38.828 L 198.135 38.828 L 198.135 38.828 Q 197.224 41.912 193.93 41.912 L 193.93 41.912 L 189.865 41.912 L 184.608 59.223 L 184.608 59.223 Q 184.258 60.275 184.258 61.396 L 184.258 61.396 L 184.258 61.396 Q 184.258 62.658 184.959 63.148 L 184.959 63.148 L 184.959 63.148 Q 185.66 63.639 186.921 63.639 L 186.921 63.639 L 186.921 63.639 Q 188.043 63.639 189.725 63.358 L 189.725 63.358 L 189.725 63.358 Q 190.566 63.148 191.197 63.148 L 191.197 63.148 L 191.197 63.148 Q 191.687 63.148 191.932 63.464 L 191.932 63.464 L 191.932 63.464 Q 192.178 63.779 192.178 64.27 L 192.178 64.27 L 192.178 64.27 Q 192.248 65.671 190.11 67.669 L 190.11 67.669 L 190.11 67.669 Q 187.973 69.666 184.328 71.103 L 184.328 71.103 L 184.328 71.103 Q 180.684 72.54 176.268 72.54 L 176.268 72.54 L 176.268 72.54 Q 171.502 72.54 168.629 70.367 L 168.629 70.367 L 168.629 70.367 Q 165.755 68.194 165.755 64.41 L 165.755 64.41 L 165.755 64.41 Q 165.755 62.658 166.316 61.046 L 166.316 61.046 L 170.801 47.168 L 170.801 47.168 Q 171.152 45.977 171.152 45.276 L 171.152 45.276 L 171.152 45.276 Q 171.152 43.874 170.486 42.893 L 170.486 42.893 L 170.486 42.893 Q 169.82 41.912 168.629 40.861 L 168.629 40.861 L 168.629 40.861 Q 167.577 39.879 167.157 39.214 L 167.157 39.214 L 167.157 39.214 Q 166.736 38.548 166.947 37.637 L 166.947 37.637 L 166.947 37.637 Q 167.227 36.725 168.138 36.235 L 168.138 36.235 L 168.138 36.235 Q 169.049 35.744 171.012 35.744 L 171.012 35.744 L 174.936 35.744 L 179.352 31.329 L 179.352 31.329 Q 181.665 29.016 183.592 28.105 L 183.592 28.105 L 183.592 28.105 Q 185.52 27.194 188.603 27.194 L 188.603 27.194 L 188.603 27.194 Q 193.019 27.194 193.019 30.558 L 193.019 30.558 L 193.019 30.558 Q 193.019 31.609 192.738 32.52 L 192.738 32.52 L 191.757 35.744 L 195.472 35.744 L 195.472 35.744 Z  M 218.04 34.483 L 218.04 34.483 Q 226.941 34.483 230.936 37.321 L 230.936 37.321 L 230.936 37.321 Q 234.931 40.16 234.931 44.575 L 234.931 44.575 L 234.931 44.575 Q 234.931 45.907 234.65 47.028 L 234.65 47.028 L 234.65 47.028 Q 233.599 51.654 228.798 53.651 L 228.798 53.651 L 228.798 53.651 Q 223.997 55.649 217.479 55.649 L 217.479 55.649 L 217.479 55.649 Q 214.185 55.649 211.311 55.228 L 211.311 55.228 L 211.311 55.228 Q 211.241 58.873 213.274 60.345 L 213.274 60.345 L 213.274 60.345 Q 215.306 61.816 218.951 61.816 L 218.951 61.816 L 218.951 61.816 Q 220.633 61.816 222.175 61.431 L 222.175 61.431 L 222.175 61.431 Q 223.717 61.046 226.1 60.275 L 226.1 60.275 L 226.1 60.275 Q 228.062 59.574 228.763 59.574 L 228.763 59.574 L 228.763 59.574 Q 229.534 59.574 229.534 60.485 L 229.534 60.485 L 229.534 60.485 Q 229.604 62.938 227.712 65.636 L 227.712 65.636 L 227.712 65.636 Q 225.819 68.335 222.105 70.227 L 222.105 70.227 L 222.105 70.227 Q 218.39 72.119 213.134 72.119 L 213.134 72.119 L 213.134 72.119 Q 205.354 72.119 200.378 68.194 L 200.378 68.194 L 200.378 68.194 Q 195.402 64.27 195.402 56.77 L 195.402 56.77 L 195.402 56.77 Q 195.402 54.668 195.962 51.864 L 195.962 51.864 L 195.962 51.864 Q 197.715 43.243 203.637 38.863 L 203.637 38.863 L 203.637 38.863 Q 209.559 34.483 218.04 34.483 L 218.04 34.483 L 218.04 34.483 Z  M 211.802 51.023 L 211.802 51.023 Q 212.082 51.093 212.573 51.093 L 212.573 51.093 L 212.573 51.093 Q 215.517 51.093 217.059 48.36 L 217.059 48.36 L 217.059 48.36 Q 218.6 45.626 218.53 42.262 L 218.53 42.262 L 218.53 42.262 Q 218.46 40.3 217.409 40.3 L 217.409 40.3 L 217.409 40.3 Q 216.638 40.3 215.587 41.526 L 215.587 41.526 L 215.587 41.526 Q 214.535 42.753 213.519 45.206 L 213.519 45.206 L 213.519 45.206 Q 212.503 47.659 211.802 51.023 L 211.802 51.023 L 211.802 51.023 Z " fill="rgb(163,188,208)"/></g></svg>