<?xml version="1.0" encoding="UTF-8" standalone="no"?><!-- Generator: Gravit.io --><svg xmlns="http://www.w3.org/2000/svg" xmlns:xlink="http://www.w3.org/1999/xlink" style="isolation:isolate" viewBox="0 0 146.595 127.625" width="146.595pt" height="127.625pt"><defs><clipPath id="_clipPath_eOK3mR69EBLHX1jkA0sL70pKdLE7e5IU"><rect width="146.595" height="127.625"/></clipPath></defs><g clip-path="url(#_clipPath_eOK3mR69EBLHX1jkA0sL70pKdLE7e5IU)"><defs><filter id="o6hzYowO57T8izOLdoXecZ65SEzIjTZ4" x="-200%" y="-200%" width="400%" height="400%" filterUnits="objectBoundingBox" color-interpolation-filters="sRGB"><feGaussianBlur xmlns="http://www.w3.org/2000/svg" in="SourceGraphic" stdDeviation="6.011052687974639"/><feOffset xmlns="http://www.w3.org/2000/svg" dx="0" dy="0" result="pf_100_offsetBlur"/><feFlood xmlns="http://www.w3.org/2000/svg" flood-color="#57BEFA" flood-opacity="1"/><feComposite xmlns="http://www.w3.org/2000/svg" in2="pf_100_offsetBlur" operator="in" result="pf_100_dropShadow"/><feBlend xmlns="http://www.w3.org/2000/svg" in="SourceGraphic" in2="pf_100_dropShadow" mode="normal"/></filter></defs><g filter="url(#o6hzYowO57T8izOLdoXecZ65SEzIjTZ4)"><clipPath id="_clipPath_TRj0CmW9DqE4ZviNyfS41aH2N5QXMeWV"><rect x="19" y="19" width="108.595" height="89.625" transform="matrix(1,0,0,1,0,0)" fill="rgb(255,255,255)"/></clipPath><g clip-path="url(#_clipPath_TRj0CmW9DqE4ZviNyfS41aH2N5QXMeWV)"><g><path d=" M 61.388 96.51 M 86.956 19 L 86.956 19 Q 107.141 19 117.368 26.738 L 117.368 26.738 L 117.368 26.738 Q 127.595 34.475 127.595 49.412 L 127.595 49.412 L 127.595 49.412 Q 127.595 56.813 124.904 66.502 L 124.904 66.502 L 124.904 66.502 Q 120.463 82.112 112.927 91.262 L 112.927 91.262 L 112.927 91.262 Q 105.392 100.413 93.079 104.584 L 93.079 104.584 L 93.079 104.584 Q 80.766 108.756 61.523 108.621 L 61.523 108.621 L 24.921 108.487 L 24.921 108.487 Q 22.095 108.487 20.548 107.545 L 20.548 107.545 L 20.548 107.545 Q 19 106.603 19 104.988 L 19 104.988 L 19 104.988 Q 19 104.181 19.404 103.239 L 19.404 103.239 L 19.404 103.239 Q 19.807 102.028 20.548 101.489 L 20.548 101.489 L 20.548 101.489 Q 21.288 100.951 22.768 100.009 L 22.768 100.009 L 22.768 100.009 Q 24.921 98.798 26.199 97.318 L 26.199 97.318 L 26.199 97.318 Q 27.478 95.837 28.42 92.608 L 28.42 92.608 L 44.837 34.744 L 44.837 34.744 Q 45.375 32.995 45.375 31.38 L 45.375 31.38 L 45.375 31.38 Q 45.375 29.9 44.904 28.891 L 44.904 28.891 L 44.904 28.891 Q 44.433 27.881 43.626 26.536 L 43.626 26.536 L 43.626 26.536 Q 42.415 24.786 42.415 23.71 L 42.415 23.71 L 42.415 23.71 Q 42.415 23.306 42.684 22.23 L 42.684 22.23 L 42.684 22.23 Q 43.222 20.48 45.039 19.74 L 45.039 19.74 L 45.039 19.74 Q 46.855 19 50.623 19 L 50.623 19 L 86.956 19 L 86.956 19 Z  M 79.157 51.193 L 79.157 51.193 Q 83.909 51.193 86.122 52.996 L 86.122 52.996 L 86.122 52.996 Q 88.334 54.799 88.334 57.913 L 88.334 57.913 L 88.334 57.913 Q 88.334 59.798 87.761 61.518 L 87.761 61.518 L 80.222 86.02 L 80.222 86.02 Q 79.976 87.003 79.976 87.74 L 79.976 87.74 L 79.976 87.74 Q 79.976 88.806 80.386 89.42 L 80.386 89.42 L 80.386 89.42 Q 80.795 90.035 81.533 90.608 L 81.533 90.608 L 81.533 90.608 Q 82.107 91.182 82.352 91.551 L 82.352 91.551 L 82.352 91.551 Q 82.598 91.92 82.434 92.493 L 82.434 92.493 L 82.434 92.493 Q 82.025 93.558 80.795 94.05 L 80.795 94.05 L 80.795 94.05 Q 79.566 94.542 77.026 94.542 L 77.026 94.542 L 58.343 94.542 L 58.343 94.542 Q 56.212 94.542 55.229 93.845 L 55.229 93.845 L 55.229 93.845 Q 54.246 93.149 54.573 92.001 L 54.573 92.001 L 54.573 92.001 Q 54.901 91.018 56.294 90.281 L 56.294 90.281 L 56.294 90.281 Q 57.523 89.625 58.343 88.724 L 58.343 88.724 L 58.343 88.724 Q 59.162 87.822 59.736 85.856 L 59.736 85.856 L 66.865 62.174 L 66.865 62.174 Q 67.111 61.436 67.111 60.945 L 67.111 60.945 L 67.111 60.945 Q 67.111 60.043 66.701 59.511 L 66.701 59.511 L 66.701 59.511 Q 66.291 58.978 65.472 58.404 L 65.472 58.404 L 65.472 58.404 Q 64.652 57.749 64.325 57.257 L 64.325 57.257 L 64.325 57.257 Q 63.997 56.766 64.243 55.946 L 64.243 55.946 L 64.243 55.946 Q 64.734 54.061 69.405 52.627 L 69.405 52.627 L 69.405 52.627 Q 74.076 51.193 79.157 51.193 L 79.157 51.193 L 79.157 51.193 Z  M 84.647 33.084 L 84.647 33.084 Q 87.843 33.084 89.973 35.173 L 89.973 35.173 L 89.973 35.173 Q 92.104 37.263 92.104 40.295 L 92.104 40.295 L 92.104 40.295 Q 92.104 42.425 90.997 44.474 L 90.997 44.474 L 90.997 44.474 Q 89.891 46.523 87.884 47.793 L 87.884 47.793 L 87.884 47.793 Q 85.876 49.063 83.418 49.063 L 83.418 49.063 L 83.418 49.063 Q 80.304 49.063 78.214 46.973 L 78.214 46.973 L 78.214 46.973 Q 76.125 44.884 76.043 41.77 L 76.043 41.77 L 76.043 41.77 Q 76.043 39.721 77.108 37.714 L 77.108 37.714 L 77.108 37.714 Q 78.173 35.706 80.14 34.395 L 80.14 34.395 L 80.14 34.395 Q 82.107 33.084 84.647 33.084 L 84.647 33.084 L 84.647 33.084 Z " fill-rule="evenodd" fill="rgb(0,0,0)"/></g></g></g></g></svg>