<?xml version="1.0" encoding="UTF-8" standalone="no"?><!-- Generator: Gravit.io --><svg xmlns="http://www.w3.org/2000/svg" xmlns:xlink="http://www.w3.org/1999/xlink" style="isolation:isolate" viewBox="0 0 160.595 141.625" width="160.595pt" height="141.625pt"><defs><clipPath id="_clipPath_Nn5yjf6tCupOhGb7pM9Z4uTQGE1HBIjL"><rect width="160.595" height="141.625"/></clipPath></defs><g clip-path="url(#_clipPath_Nn5yjf6tCupOhGb7pM9Z4uTQGE1HBIjL)"><defs><filter id="892sajsVfvZzS6BtkAzK3eozDzIZXMTy" x="-200%" y="-200%" width="400%" height="400%" filterUnits="objectBoundingBox" color-interpolation-filters="sRGB"><feGaussianBlur xmlns="http://www.w3.org/2000/svg" in="SourceGraphic" stdDeviation="8.587218125678056"/><feOffset xmlns="http://www.w3.org/2000/svg" dx="0" dy="0" result="pf_100_offsetBlur"/><feFlood xmlns="http://www.w3.org/2000/svg" flood-color="#15A7FB" flood-opacity="0"/><feComposite xmlns="http://www.w3.org/2000/svg" in2="pf_100_offsetBlur" operator="in" result="pf_100_dropShadow"/><feBlend xmlns="http://www.w3.org/2000/svg" in="SourceGraphic" in2="pf_100_dropShadow" mode="normal"/></filter></defs><g filter="url(#892sajsVfvZzS6BtkAzK3eozDzIZXMTy)"><clipPath id="_clipPath_MaBxwSxl1HUezTedCDsGzRugINp5ShIQ"><rect x="26" y="26" width="108.595" height="89.625" transform="matrix(1,0,0,1,0,0)" fill="rgb(255,255,255)"/></clipPath><g clip-path="url(#_clipPath_MaBxwSxl1HUezTedCDsGzRugINp5ShIQ)"><g><path d=" M 68.388 103.51 M 93.956 26 L 93.956 26 Q 114.141 26 124.368 33.738 L 124.368 33.738 L 124.368 33.738 Q 134.595 41.475 134.595 56.412 L 134.595 56.412 L 134.595 56.412 Q 134.595 63.813 131.904 73.502 L 131.904 73.502 L 131.904 73.502 Q 127.463 89.112 119.927 98.262 L 119.927 98.262 L 119.927 98.262 Q 112.392 107.413 100.079 111.584 L 100.079 111.584 L 100.079 111.584 Q 87.766 115.756 68.523 115.621 L 68.523 115.621 L 31.921 115.487 L 31.921 115.487 Q 29.095 115.487 27.548 114.545 L 27.548 114.545 L 27.548 114.545 Q 26 113.603 26 111.988 L 26 111.988 L 26 111.988 Q 26 111.181 26.404 110.239 L 26.404 110.239 L 26.404 110.239 Q 26.807 109.028 27.548 108.489 L 27.548 108.489 L 27.548 108.489 Q 28.288 107.951 29.768 107.009 L 29.768 107.009 L 29.768 107.009 Q 31.921 105.798 33.199 104.318 L 33.199 104.318 L 33.199 104.318 Q 34.478 102.837 35.42 99.608 L 35.42 99.608 L 51.837 41.744 L 51.837 41.744 Q 52.375 39.995 52.375 38.38 L 52.375 38.38 L 52.375 38.38 Q 52.375 36.9 51.904 35.891 L 51.904 35.891 L 51.904 35.891 Q 51.433 34.881 50.626 33.536 L 50.626 33.536 L 50.626 33.536 Q 49.415 31.786 49.415 30.71 L 49.415 30.71 L 49.415 30.71 Q 49.415 30.306 49.684 29.23 L 49.684 29.23 L 49.684 29.23 Q 50.222 27.48 52.039 26.74 L 52.039 26.74 L 52.039 26.74 Q 53.855 26 57.623 26 L 57.623 26 L 93.956 26 L 93.956 26 Z  M 86.157 58.193 L 86.157 58.193 Q 90.909 58.193 93.122 59.996 L 93.122 59.996 L 93.122 59.996 Q 95.334 61.799 95.334 64.913 L 95.334 64.913 L 95.334 64.913 Q 95.334 66.798 94.761 68.518 L 94.761 68.518 L 87.222 93.02 L 87.222 93.02 Q 86.976 94.003 86.976 94.74 L 86.976 94.74 L 86.976 94.74 Q 86.976 95.806 87.386 96.42 L 87.386 96.42 L 87.386 96.42 Q 87.795 97.035 88.533 97.608 L 88.533 97.608 L 88.533 97.608 Q 89.107 98.182 89.352 98.551 L 89.352 98.551 L 89.352 98.551 Q 89.598 98.92 89.434 99.493 L 89.434 99.493 L 89.434 99.493 Q 89.025 100.558 87.795 101.05 L 87.795 101.05 L 87.795 101.05 Q 86.566 101.542 84.026 101.542 L 84.026 101.542 L 65.343 101.542 L 65.343 101.542 Q 63.212 101.542 62.229 100.845 L 62.229 100.845 L 62.229 100.845 Q 61.246 100.149 61.573 99.001 L 61.573 99.001 L 61.573 99.001 Q 61.901 98.018 63.294 97.281 L 63.294 97.281 L 63.294 97.281 Q 64.523 96.625 65.343 95.724 L 65.343 95.724 L 65.343 95.724 Q 66.162 94.822 66.736 92.856 L 66.736 92.856 L 73.865 69.174 L 73.865 69.174 Q 74.111 68.436 74.111 67.945 L 74.111 67.945 L 74.111 67.945 Q 74.111 67.043 73.701 66.511 L 73.701 66.511 L 73.701 66.511 Q 73.291 65.978 72.472 65.404 L 72.472 65.404 L 72.472 65.404 Q 71.652 64.749 71.325 64.257 L 71.325 64.257 L 71.325 64.257 Q 70.997 63.766 71.243 62.946 L 71.243 62.946 L 71.243 62.946 Q 71.734 61.061 76.405 59.627 L 76.405 59.627 L 76.405 59.627 Q 81.076 58.193 86.157 58.193 L 86.157 58.193 L 86.157 58.193 Z  M 91.647 40.084 L 91.647 40.084 Q 94.843 40.084 96.973 42.173 L 96.973 42.173 L 96.973 42.173 Q 99.104 44.263 99.104 47.295 L 99.104 47.295 L 99.104 47.295 Q 99.104 49.425 97.997 51.474 L 97.997 51.474 L 97.997 51.474 Q 96.891 53.523 94.884 54.793 L 94.884 54.793 L 94.884 54.793 Q 92.876 56.063 90.418 56.063 L 90.418 56.063 L 90.418 56.063 Q 87.304 56.063 85.214 53.973 L 85.214 53.973 L 85.214 53.973 Q 83.125 51.884 83.043 48.77 L 83.043 48.77 L 83.043 48.77 Q 83.043 46.721 84.108 44.714 L 84.108 44.714 L 84.108 44.714 Q 85.173 42.706 87.14 41.395 L 87.14 41.395 L 87.14 41.395 Q 89.107 40.084 91.647 40.084 L 91.647 40.084 L 91.647 40.084 Z " fill-rule="evenodd" fill="rgb(0,0,0)"/></g></g></g></g></svg>