<?xml version="1.0" encoding="UTF-8" standalone="no"?><!-- Generator: Gravit.io --><svg xmlns="http://www.w3.org/2000/svg" xmlns:xlink="http://www.w3.org/1999/xlink" style="isolation:isolate" viewBox="0 0 156.595 137.625" width="156.595pt" height="137.625pt"><defs><clipPath id="_clipPath_UogOyDUAMgcyYGlBB33TpjgRX6MpT2ZR"><rect width="156.595" height="137.625"/></clipPath></defs><g clip-path="url(#_clipPath_UogOyDUAMgcyYGlBB33TpjgRX6MpT2ZR)"><clipPath id="_clipPath_XpPRYTAHQoqUvQOGKberlVTpRwfg2lOo"><rect x="0" y="0" width="156.595" height="137.625" transform="matrix(1,0,0,1,0,0)" fill="rgb(255,255,255)"/></clipPath><g clip-path="url(#_clipPath_XpPRYTAHQoqUvQOGKberlVTpRwfg2lOo)"><g><g filter="url(#3tZdoG6lAyvZJWI8SlRNEK8cN1z8SG8s)"><path d=" M 66.388 101.51 L 66.388 101.51 L 66.388 101.51 Z  M 91.956 24 L 91.956 24 Q 112.141 24 122.368 31.738 L 122.368 31.738 L 122.368 31.738 Q 132.595 39.475 132.595 54.412 L 132.595 54.412 L 132.595 54.412 Q 132.595 61.813 129.904 71.502 L 129.904 71.502 L 129.904 71.502 Q 125.463 87.112 117.927 96.262 L 117.927 96.262 L 117.927 96.262 Q 110.392 105.413 98.079 109.584 L 98.079 109.584 L 98.079 109.584 Q 85.766 113.756 66.523 113.621 L 66.523 113.621 L 29.921 113.487 L 29.921 113.487 Q 27.095 113.487 25.548 112.545 L 25.548 112.545 L 25.548 112.545 Q 24 111.603 24 109.988 L 24 109.988 L 24 109.988 Q 24 109.181 24.404 108.239 L 24.404 108.239 L 24.404 108.239 Q 24.807 107.028 25.548 106.489 L 25.548 106.489 L 25.548 106.489 Q 26.288 105.951 27.768 105.009 L 27.768 105.009 L 27.768 105.009 Q 29.921 103.798 31.199 102.318 L 31.199 102.318 L 31.199 102.318 Q 32.478 100.837 33.42 97.608 L 33.42 97.608 L 49.837 39.744 L 49.837 39.744 Q 50.375 37.995 50.375 36.38 L 50.375 36.38 L 50.375 36.38 Q 50.375 34.9 49.904 33.891 L 49.904 33.891 L 49.904 33.891 Q 49.433 32.881 48.626 31.536 L 48.626 31.536 L 48.626 31.536 Q 47.415 29.786 47.415 28.71 L 47.415 28.71 L 47.415 28.71 Q 47.415 28.306 47.684 27.23 L 47.684 27.23 L 47.684 27.23 Q 48.222 25.48 50.039 24.74 L 50.039 24.74 L 50.039 24.74 Q 51.855 24 55.623 24 L 55.623 24 L 91.956 24 L 91.956 24 L 91.956 24 Z  M 84.157 56.193 L 84.157 56.193 Q 88.909 56.193 91.122 57.996 L 91.122 57.996 L 91.122 57.996 Q 93.334 59.799 93.334 62.913 L 93.334 62.913 L 93.334 62.913 Q 93.334 64.798 92.761 66.518 L 92.761 66.518 L 85.222 91.02 L 85.222 91.02 Q 84.976 92.003 84.976 92.74 L 84.976 92.74 L 84.976 92.74 Q 84.976 93.806 85.386 94.42 L 85.386 94.42 L 85.386 94.42 Q 85.795 95.035 86.533 95.608 L 86.533 95.608 L 86.533 95.608 Q 87.107 96.182 87.352 96.551 L 87.352 96.551 L 87.352 96.551 Q 87.598 96.92 87.434 97.493 L 87.434 97.493 L 87.434 97.493 Q 87.025 98.558 85.795 99.05 L 85.795 99.05 L 85.795 99.05 Q 84.566 99.542 82.026 99.542 L 82.026 99.542 L 63.343 99.542 L 63.343 99.542 Q 61.212 99.542 60.229 98.845 L 60.229 98.845 L 60.229 98.845 Q 59.246 98.149 59.573 97.001 L 59.573 97.001 L 59.573 97.001 Q 59.901 96.018 61.294 95.281 L 61.294 95.281 L 61.294 95.281 Q 62.523 94.625 63.343 93.724 L 63.343 93.724 L 63.343 93.724 Q 64.162 92.822 64.736 90.856 L 64.736 90.856 L 71.865 67.174 L 71.865 67.174 Q 72.111 66.436 72.111 65.945 L 72.111 65.945 L 72.111 65.945 Q 72.111 65.043 71.701 64.511 L 71.701 64.511 L 71.701 64.511 Q 71.291 63.978 70.472 63.404 L 70.472 63.404 L 70.472 63.404 Q 69.652 62.749 69.325 62.257 L 69.325 62.257 L 69.325 62.257 Q 68.997 61.766 69.243 60.946 L 69.243 60.946 L 69.243 60.946 Q 69.734 59.061 74.405 57.627 L 74.405 57.627 L 74.405 57.627 Q 79.076 56.193 84.157 56.193 L 84.157 56.193 L 84.157 56.193 L 84.157 56.193 Z  M 89.647 38.084 L 89.647 38.084 Q 92.843 38.084 94.973 40.173 L 94.973 40.173 L 94.973 40.173 Q 97.104 42.263 97.104 45.295 L 97.104 45.295 L 97.104 45.295 Q 97.104 47.425 95.997 49.474 L 95.997 49.474 L 95.997 49.474 Q 94.891 51.523 92.884 52.793 L 92.884 52.793 L 92.884 52.793 Q 90.876 54.063 88.418 54.063 L 88.418 54.063 L 88.418 54.063 Q 85.304 54.063 83.214 51.973 L 83.214 51.973 L 83.214 51.973 Q 81.125 49.884 81.043 46.77 L 81.043 46.77 L 81.043 46.77 Q 81.043 44.721 82.108 42.714 L 82.108 42.714 L 82.108 42.714 Q 83.173 40.706 85.14 39.395 L 85.14 39.395 L 85.14 39.395 Q 87.107 38.084 89.647 38.084 L 89.647 38.084 L 89.647 38.084 L 89.647 38.084 Z " fill-rule="evenodd" fill="rgb(0,0,0)"/></g><defs><filter id="3tZdoG6lAyvZJWI8SlRNEK8cN1z8SG8s" x="-200%" y="-200%" width="400%" height="400%" filterUnits="objectBoundingBox" color-interpolation-filters="sRGB"><feGaussianBlur xmlns="http://www.w3.org/2000/svg" in="SourceGraphic" stdDeviation="7.728496313110251"/><feOffset xmlns="http://www.w3.org/2000/svg" dx="0" dy="0" result="pf_100_offsetBlur"/><feFlood xmlns="http://www.w3.org/2000/svg" flood-color="#005EFF" flood-opacity="0"/><feComposite xmlns="http://www.w3.org/2000/svg" in2="pf_100_offsetBlur" operator="in" result="pf_100_dropShadow"/><feBlend xmlns="http://www.w3.org/2000/svg" in="SourceGraphic" in2="pf_100_dropShadow" mode="normal"/></filter></defs></g></g></g></svg>